<svg xmlns="http://www.w3.org/2000/svg" viewBox="0 0 400 400" fill="none" shape-rendering="auto"><metadata xmlns:rdf="http://www.w3.org/1999/02/22-rdf-syntax-ns#" xmlns:xsi="http://www.w3.org/2001/XMLSchema-instance" xmlns:dc="http://purl.org/dc/elements/1.1/" xmlns:dcterms="http://purl.org/dc/terms/"><rdf:RDF><rdf:Description><dc:title>Adventurer Neutral</dc:title><dc:creator>Lisa Wischofsky</dc:creator><dc:source xsi:type="dcterms:URI">https://www.figma.com/community/file/1184595184137881796</dc:source><dcterms:license xsi:type="dcterms:URI">https://creativecommons.org/licenses/by/4.0/</dcterms:license><dc:rights>Remix of „Adventurer Neutral” (https://www.figma.com/community/file/1184595184137881796) by „Lisa Wischofsky”, licensed under „CC BY 4.0” (https://creativecommons.org/licenses/by/4.0/)</dc:rights></rdf:Description></rdf:RDF></metadata><mask id="viewboxMask"><rect width="400" height="400" rx="0" ry="0" x="0" y="0" fill="#fff" /></mask><g mask="url(#viewboxMask)"><rect fill="#ecad80" width="400" height="400" x="0" y="0" /><g transform="translate(-279 -322)"><path d="M559.03 444.54c11.35-.74 22.5-.03 33.16 4.25 11.38 4.42 21.3 12.4 26.22 23.8 1.35 3.28 3.11 7.55 2.23 11.1-3.07 3.25-8.56 1.02-12.56 1.03-12.66-.6-25.44-.46-38.07.6-13.92 1-28.4 1.71-41.93 5.23-8.57 1.76-17 4.47-25.23 7.41-3.69 1.26-6.8 2.95-10.86 2.2 1.31-16.82 12.96-31.4 26.26-40.94a87.3 87.3 0 0 1 40.78-14.69Z" fill="#000"/><path d="M572.98 450.16c11.61 1.09 23.19 4.98 31.87 13a36.2 36.2 0 0 1 10.19 16.72c-16.72-2.17-34.3-.87-51.09.1-7.64.88-15.37.98-22.94 2.25 1.15-9.27 2.15-18.43 1.05-27.77 10.01-3.52 20.28-5.48 30.92-4.3Z" fill="#fff"/><path d="M369.22 468.68c17.1-2.83 35.63-.23 50.88 8.19 8.69 4.83 16.86 12.07 20.6 21.48.74 2.06 1.6 4.59-.72 5.96-2.65.08-5.37-.59-8-1-9.4-1.82-19.4-2.12-28.98-2.58-10.7-.45-21.3.47-32 .59-12.48.84-24.76 2.93-37.09 5-2.44.58-3.13-2.39-3.06-4.24.15-12.37 9.08-22.32 19.76-27.45 6-2.54 12.23-4.67 18.62-5.95Z" fill="#000"/><path d="M516.85 467.34c-.57 6.96-.53 13.45.13 20.4-6.16 1.8-12.2 3.88-18.22 6.1 3.2-10.63 9.88-19.24 18.1-26.5ZM374.58 473.35c9.9-.51 19.68.03 29.2 2.93 12.4 3.71 23.8 10.16 30.58 21.56-20.19-3.58-39.98-2.6-60.31-2.46.88-7.35.67-14.65.53-22.03ZM350.49 480.58c-.28 5.86-.25 11.64 0 17.5-4.7.28-9.4.74-14.03 1.68 1.62-7 5.15-12.07 10.65-16.56 1.13-.89 2.26-1.76 3.39-2.62Z" fill="#fff"/></g><g transform="translate(-279 -322)"><path d="M606.99 397.59c1.52-.4 3.26.6 4.74.97-.11 1.2-.17 2.45-.47 3.61-1.58 1.5-3.57 2.6-5.39 3.78-22.77 14.6-46.18 28.4-70.32 40.63-11.53 5.73-23.34 11.3-35.55 15.44-6.86 2.19-13.72 4.28-21 3.44-3.32-.31-6.17-3.02-6.24-6.43-.04-4.22 3-8.6 5.08-12.15 1.28-2.68 4.5-3.04 7-4.12 37.23-13.75 74.43-27.65 111.66-41.45 3.48-1.23 6.9-2.81 10.5-3.72ZM338.99 432.64c29.88 5.94 60.13 12.03 90.02 18.02 2.27.32 4.6.07 6.85.45 2.45 2.3 3.64 6.2 4.54 9.37 1.17 4.09-.15 8.77-3.9 11-4 2.63-9.92 2.17-14.5 1.9-8.75-1-17.42-3.8-25.69-6.74-19.61-7.16-38.69-16.93-56.97-26.97-1.67-.96-3.68-1.94-4.79-3.55-.38-2.88 1.85-4.16 4.44-3.48Z" fill="#000"/></g><g transform="translate(-279 -322)"><path d="M526 559.6c18 0 37.23 2.15 54 9.1-52.21 7.16-107.16 15.06-158.99 22.19 8.03-7 17.68-12.33 27.44-16.48 12.23-5.1 26.26-9.18 39.6-7.43.97.15 1.85.04 2.62-.34 10.24-5.9 23.77-6.7 35.33-7.05Z" fill="#D31E1E"/><path d="M579.99 568.69c2.42 1 1.92 3.4 1.38 5.45-6.78 13.35-16.08 25.18-28.35 33.9-17.2 12.5-38.88 18.4-60.02 17.58-26.81-.96-53.07-12.04-73.44-29.31-.4-2.42-.5-3.7 1.45-5.42 51.83-7.13 106.78-15.03 158.98-22.2Z" fill="#000"/><path d="M581.37 574.14c-1.1 4.61-1.85 9.2-3.65 13.62-5.36 13.94-16.05 25.4-28.38 33.56-13.59 8.87-29.26 14.15-45.36 15.89-19.66 2.09-40.79-1.1-58-11.18-11.77-6.82-21.38-17-26.42-29.72 20.37 17.27 46.63 28.35 73.44 29.31 21.14.82 42.83-5.1 60.02-17.58 12.27-8.72 21.57-20.55 28.35-33.9Z" fill="#D31E1E"/><path d="M573.86 575.51a83.4 83.4 0 0 1-36.37 35 89.24 89.24 0 0 1-40.5 9.18c-24.7.18-49-9.01-68.57-23.87 47.93-6.6 97.73-13.8 145.44-20.31Z" fill="#fff"/></g><g transform="translate(-279 -322)"></g></g></svg>